<mxfile host="app.diagrams.net" agent="Mozilla/5.0 (Windows NT 10.0; Win64; x64) AppleWebKit/537.36 (KHTML, like Gecko) Chrome/132.0.0.0 Safari/537.36" version="26.0.13">
  <diagram name="Страница — 1" id="sXnHmZXaYCT4o0jZC05X">
    <mxGraphModel dx="1434" dy="738" grid="1" gridSize="10" guides="1" tooltips="1" connect="1" arrows="1" fold="1" page="1" pageScale="1" pageWidth="827" pageHeight="1169" math="0" shadow="0">
      <root>
        <mxCell id="0" />
        <mxCell id="1" parent="0" />
        <mxCell id="wkyCnmXRXpHUXjeOiAia-70" value="" style="rounded=0;whiteSpace=wrap;html=1;" parent="1" vertex="1">
          <mxGeometry x="440" y="30" width="1230" height="170" as="geometry" />
        </mxCell>
        <mxCell id="wkyCnmXRXpHUXjeOiAia-1" value="" style="rounded=0;whiteSpace=wrap;html=1;" parent="1" vertex="1">
          <mxGeometry x="10" y="30" width="400" height="170" as="geometry" />
        </mxCell>
        <mxCell id="wkyCnmXRXpHUXjeOiAia-2" value="Заказчик" style="shape=umlActor;verticalLabelPosition=bottom;verticalAlign=top;html=1;outlineConnect=0;" parent="1" vertex="1">
          <mxGeometry x="113.19" y="90" width="30" height="60" as="geometry" />
        </mxCell>
        <mxCell id="wkyCnmXRXpHUXjeOiAia-3" value="Исполнитель" style="shape=umlActor;verticalLabelPosition=bottom;verticalAlign=top;html=1;outlineConnect=0;" parent="1" vertex="1">
          <mxGeometry x="283.19" y="90" width="30" height="60" as="geometry" />
        </mxCell>
        <mxCell id="wkyCnmXRXpHUXjeOiAia-4" value="" style="endArrow=classic;startArrow=classic;html=1;rounded=0;" parent="1" edge="1">
          <mxGeometry width="50" height="50" relative="1" as="geometry">
            <mxPoint x="163.19" y="119.65999999999997" as="sourcePoint" />
            <mxPoint x="253.19" y="120" as="targetPoint" />
          </mxGeometry>
        </mxCell>
        <mxCell id="wkyCnmXRXpHUXjeOiAia-5" value="" style="image;aspect=fixed;html=1;points=[];align=center;fontSize=12;image=img/lib/azure2/blockchain/Azure_Blockchain_Service.svg;" parent="1" vertex="1">
          <mxGeometry x="188.69" y="130" width="38.5" height="38.5" as="geometry" />
        </mxCell>
        <mxCell id="wkyCnmXRXpHUXjeOiAia-6" value="" style="shape=image;html=1;verticalAlign=top;verticalLabelPosition=bottom;labelBackgroundColor=#ffffff;imageAspect=0;aspect=fixed;image=https://cdn1.iconfinder.com/data/icons/cryptocurrency-blockchain-fintech-free/32/Cryptocurrency_digital_contract-128.png" parent="1" vertex="1">
          <mxGeometry x="187.19" y="70" width="40" height="40" as="geometry" />
        </mxCell>
        <mxCell id="wkyCnmXRXpHUXjeOiAia-8" value="&lt;b&gt;System Concept&lt;/b&gt;" style="text;html=1;align=center;verticalAlign=middle;whiteSpace=wrap;rounded=0;" parent="1" vertex="1">
          <mxGeometry x="10" width="97" height="30" as="geometry" />
        </mxCell>
        <mxCell id="wkyCnmXRXpHUXjeOiAia-9" value="" style="rounded=0;whiteSpace=wrap;html=1;" parent="1" vertex="1">
          <mxGeometry x="10" y="240" width="3140" height="440" as="geometry" />
        </mxCell>
        <mxCell id="wkyCnmXRXpHUXjeOiAia-42" style="edgeStyle=orthogonalEdgeStyle;rounded=0;orthogonalLoop=1;jettySize=auto;html=1;entryX=0;entryY=0.5;entryDx=0;entryDy=0;" parent="1" source="wkyCnmXRXpHUXjeOiAia-10" target="wkyCnmXRXpHUXjeOiAia-40" edge="1">
          <mxGeometry relative="1" as="geometry" />
        </mxCell>
        <mxCell id="wkyCnmXRXpHUXjeOiAia-10" value="Заказчик" style="shape=umlActor;verticalLabelPosition=bottom;verticalAlign=top;html=1;outlineConnect=0;" parent="1" vertex="1">
          <mxGeometry x="73" y="294" width="30" height="60" as="geometry" />
        </mxCell>
        <mxCell id="wkyCnmXRXpHUXjeOiAia-41" style="edgeStyle=orthogonalEdgeStyle;rounded=0;orthogonalLoop=1;jettySize=auto;html=1;entryX=0;entryY=0.5;entryDx=0;entryDy=0;" parent="1" source="wkyCnmXRXpHUXjeOiAia-11" target="wkyCnmXRXpHUXjeOiAia-39" edge="1">
          <mxGeometry relative="1" as="geometry" />
        </mxCell>
        <mxCell id="wkyCnmXRXpHUXjeOiAia-11" value="Исполнитель" style="shape=umlActor;verticalLabelPosition=bottom;verticalAlign=top;html=1;outlineConnect=0;" parent="1" vertex="1">
          <mxGeometry x="73" y="555" width="30" height="60" as="geometry" />
        </mxCell>
        <mxCell id="wkyCnmXRXpHUXjeOiAia-15" value="&lt;b&gt;Use-cases / user-flow&lt;/b&gt;" style="text;html=1;align=center;verticalAlign=middle;whiteSpace=wrap;rounded=0;" parent="1" vertex="1">
          <mxGeometry x="10" y="210" width="130" height="30" as="geometry" />
        </mxCell>
        <mxCell id="wkyCnmXRXpHUXjeOiAia-18" value="&lt;span style=&quot;&quot;&gt;Публикует задачи с условиями, описанием, доп. материалами, которые необходимо выполнить&lt;/span&gt;" style="rounded=1;whiteSpace=wrap;html=1;align=center;fillColor=#dae8fc;strokeColor=#6c8ebf;" parent="1" vertex="1">
          <mxGeometry x="810" y="279.5" width="200" height="90" as="geometry" />
        </mxCell>
        <mxCell id="wkyCnmXRXpHUXjeOiAia-21" value="Розыгрыш исполнителей для&lt;div&gt;задач&amp;nbsp;&lt;span style=&quot;background-color: transparent; color: light-dark(rgb(0, 0, 0), rgb(255, 255, 255));&quot;&gt;в зависимости&lt;/span&gt;&lt;/div&gt;&lt;div&gt;&lt;span style=&quot;background-color: transparent; color: light-dark(rgb(0, 0, 0), rgb(255, 255, 255));&quot;&gt;от шафлинга (рандома) и их рейтинга&amp;nbsp;&lt;/span&gt;&lt;span style=&quot;background-color: transparent; color: light-dark(rgb(0, 0, 0), rgb(255, 255, 255));&quot;&gt;(спец. токены)&lt;/span&gt;&lt;/div&gt;" style="rounded=1;whiteSpace=wrap;html=1;fillColor=#dae8fc;strokeColor=#6c8ebf;" parent="1" vertex="1">
          <mxGeometry x="1591" y="280" width="200" height="350" as="geometry" />
        </mxCell>
        <mxCell id="wkyCnmXRXpHUXjeOiAia-24" value="Смарт контракты и блокчейн как посредники и надежная среда / платформа" style="text;html=1;align=center;verticalAlign=middle;whiteSpace=wrap;rounded=0;fontSize=8;" parent="1" vertex="1">
          <mxGeometry x="127.41" y="36" width="163.56" height="26" as="geometry" />
        </mxCell>
        <mxCell id="wkyCnmXRXpHUXjeOiAia-26" value="Ожидает отчетную деятельность от исполнителя в течении определенного&lt;div&gt;заданного времени&lt;/div&gt;" style="rounded=1;whiteSpace=wrap;html=1;fillColor=#dae8fc;strokeColor=#6c8ebf;" parent="1" vertex="1">
          <mxGeometry x="1811" y="279.5" width="200" height="90" as="geometry" />
        </mxCell>
        <mxCell id="wkyCnmXRXpHUXjeOiAia-27" value="Если нет, то снижается&lt;div&gt;рейтинг (-50)&lt;/div&gt;" style="rounded=1;whiteSpace=wrap;html=1;fillColor=#fff2cc;strokeColor=#d6b656;" parent="1" vertex="1">
          <mxGeometry x="2030" y="588" width="200" height="41" as="geometry" />
        </mxCell>
        <mxCell id="wkyCnmXRXpHUXjeOiAia-29" value="Выплачивает N сумму исполнителю за работу" style="rounded=1;whiteSpace=wrap;html=1;fillColor=#dae8fc;strokeColor=#6c8ebf;" parent="1" vertex="1">
          <mxGeometry x="2030" y="280" width="200" height="90" as="geometry" />
        </mxCell>
        <mxCell id="wkyCnmXRXpHUXjeOiAia-30" value="TODO: Возможность&lt;div&gt;заказчику отправлять&lt;/div&gt;&lt;div&gt;на доработку / revision&lt;/div&gt;" style="rounded=1;whiteSpace=wrap;html=1;" parent="1" vertex="1">
          <mxGeometry x="2470" y="420" width="200" height="70" as="geometry" />
        </mxCell>
        <mxCell id="wkyCnmXRXpHUXjeOiAia-33" value="Отчет и результат исполнения тяжело (слишком большие файлы которые вызывают нагрузку на сеть и цену обработки в ней) хранить в самом блокчейне, поэтому либо в IPFS либо как ссылкой внешнего хранения или другое хранилище данных" style="rounded=1;whiteSpace=wrap;html=1;" parent="1" vertex="1">
          <mxGeometry x="2250" y="540" width="410" height="90" as="geometry" />
        </mxCell>
        <mxCell id="wkyCnmXRXpHUXjeOiAia-39" value="Аутентифицируется и авторизируется на платформе с помощью кошелька Metamask или другого поддерживающего&lt;div&gt;TBNB провайдера&lt;/div&gt;" style="rounded=1;whiteSpace=wrap;html=1;align=center;fillColor=#dae8fc;strokeColor=#6c8ebf;" parent="1" vertex="1">
          <mxGeometry x="150" y="540" width="200" height="89" as="geometry" />
        </mxCell>
        <mxCell id="wkyCnmXRXpHUXjeOiAia-40" value="Аутентифицируется и авторизируется на платформе с помощью кошелька Metamask или другого поддерживающего&lt;div&gt;TBNB провайдера&lt;/div&gt;" style="rounded=1;whiteSpace=wrap;html=1;align=center;fillColor=#dae8fc;strokeColor=#6c8ebf;" parent="1" vertex="1">
          <mxGeometry x="150" y="279.5" width="200" height="89" as="geometry" />
        </mxCell>
        <mxCell id="wkyCnmXRXpHUXjeOiAia-43" value="Система теперь знает адрес или публичный ключ пользователя" style="rounded=1;whiteSpace=wrap;html=1;align=center;fillColor=#dae8fc;strokeColor=#6c8ebf;" parent="1" vertex="1">
          <mxGeometry x="370" y="279.5" width="200" height="89" as="geometry" />
        </mxCell>
        <mxCell id="wkyCnmXRXpHUXjeOiAia-44" value="Система теперь знает адрес или публичный ключ пользователя" style="rounded=1;whiteSpace=wrap;html=1;align=center;fillColor=#dae8fc;strokeColor=#6c8ebf;" parent="1" vertex="1">
          <mxGeometry x="370" y="540" width="200" height="89" as="geometry" />
        </mxCell>
        <mxCell id="wkyCnmXRXpHUXjeOiAia-45" value="" style="endArrow=classic;html=1;rounded=0;exitX=1;exitY=0.5;exitDx=0;exitDy=0;entryX=0;entryY=0.5;entryDx=0;entryDy=0;" parent="1" source="wkyCnmXRXpHUXjeOiAia-39" target="wkyCnmXRXpHUXjeOiAia-44" edge="1">
          <mxGeometry width="50" height="50" relative="1" as="geometry">
            <mxPoint x="480" y="560" as="sourcePoint" />
            <mxPoint x="530" y="510" as="targetPoint" />
          </mxGeometry>
        </mxCell>
        <mxCell id="wkyCnmXRXpHUXjeOiAia-46" value="" style="endArrow=classic;html=1;rounded=0;exitX=1;exitY=0.5;exitDx=0;exitDy=0;" parent="1" source="wkyCnmXRXpHUXjeOiAia-40" target="wkyCnmXRXpHUXjeOiAia-43" edge="1">
          <mxGeometry width="50" height="50" relative="1" as="geometry">
            <mxPoint x="480" y="560" as="sourcePoint" />
            <mxPoint x="530" y="510" as="targetPoint" />
          </mxGeometry>
        </mxCell>
        <mxCell id="wkyCnmXRXpHUXjeOiAia-51" value="Может просматривать текущие задачи на платформе и другую статистику" style="rounded=1;whiteSpace=wrap;html=1;align=center;fillColor=#dae8fc;strokeColor=#6c8ebf;" parent="1" vertex="1">
          <mxGeometry x="590" y="279.5" width="200" height="89" as="geometry" />
        </mxCell>
        <mxCell id="wkyCnmXRXpHUXjeOiAia-52" value="Может просматривать текущие задачи на платформе и другую статистику" style="rounded=1;whiteSpace=wrap;html=1;align=center;fillColor=#dae8fc;strokeColor=#6c8ebf;" parent="1" vertex="1">
          <mxGeometry x="590" y="540" width="200" height="89" as="geometry" />
        </mxCell>
        <mxCell id="wkyCnmXRXpHUXjeOiAia-53" value="" style="endArrow=classic;html=1;rounded=0;exitX=1;exitY=0.5;exitDx=0;exitDy=0;entryX=0;entryY=0.5;entryDx=0;entryDy=0;" parent="1" source="wkyCnmXRXpHUXjeOiAia-43" target="wkyCnmXRXpHUXjeOiAia-51" edge="1">
          <mxGeometry width="50" height="50" relative="1" as="geometry">
            <mxPoint x="630" y="520" as="sourcePoint" />
            <mxPoint x="680" y="470" as="targetPoint" />
          </mxGeometry>
        </mxCell>
        <mxCell id="wkyCnmXRXpHUXjeOiAia-54" value="" style="endArrow=classic;html=1;rounded=0;exitX=1;exitY=0.5;exitDx=0;exitDy=0;entryX=0;entryY=0.5;entryDx=0;entryDy=0;" parent="1" source="wkyCnmXRXpHUXjeOiAia-44" target="wkyCnmXRXpHUXjeOiAia-52" edge="1">
          <mxGeometry width="50" height="50" relative="1" as="geometry">
            <mxPoint x="630" y="520" as="sourcePoint" />
            <mxPoint x="680" y="470" as="targetPoint" />
          </mxGeometry>
        </mxCell>
        <mxCell id="wkyCnmXRXpHUXjeOiAia-55" value="" style="endArrow=classic;html=1;rounded=0;exitX=1;exitY=0.5;exitDx=0;exitDy=0;entryX=0;entryY=0.5;entryDx=0;entryDy=0;" parent="1" source="wkyCnmXRXpHUXjeOiAia-51" target="wkyCnmXRXpHUXjeOiAia-18" edge="1">
          <mxGeometry width="50" height="50" relative="1" as="geometry">
            <mxPoint x="820" y="510" as="sourcePoint" />
            <mxPoint x="870" y="460" as="targetPoint" />
          </mxGeometry>
        </mxCell>
        <mxCell id="wkyCnmXRXpHUXjeOiAia-61" value="&lt;div&gt;Кол-во одновременных&lt;/div&gt;&lt;div&gt;незаверешенных&lt;/div&gt;&lt;div&gt;&lt;span style=&quot;background-color: transparent; color: light-dark(rgb(0, 0, 0), rgb(255, 255, 255));&quot;&gt;опубликованных задач / публикаций&lt;/span&gt;&lt;/div&gt;&lt;div&gt;&lt;span style=&quot;background-color: transparent; color: light-dark(rgb(0, 0, 0), rgb(255, 255, 255));&quot;&gt;у&amp;nbsp;&lt;/span&gt;&lt;span style=&quot;background-color: transparent; color: light-dark(rgb(0, 0, 0), rgb(255, 255, 255));&quot;&gt;одного пользователя (&amp;lt;=10)&lt;/span&gt;&lt;/div&gt;" style="shape=parallelogram;perimeter=parallelogramPerimeter;whiteSpace=wrap;html=1;fixedSize=1;fillColor=#f8cecc;strokeColor=#b85450;" parent="1" vertex="1">
          <mxGeometry x="1030" y="280" width="259" height="90" as="geometry" />
        </mxCell>
        <mxCell id="wkyCnmXRXpHUXjeOiAia-73" value="&lt;b&gt;Legend&lt;/b&gt;" style="text;html=1;align=center;verticalAlign=middle;whiteSpace=wrap;rounded=0;" parent="1" vertex="1">
          <mxGeometry x="440" width="60.56" height="30" as="geometry" />
        </mxCell>
        <mxCell id="wkyCnmXRXpHUXjeOiAia-75" value="Нельзя участвовать / быть&lt;div&gt;исполнителем в&lt;div&gt;собственных&amp;nbsp;&lt;span style=&quot;background-color: transparent; color: light-dark(rgb(0, 0, 0), rgb(255, 255, 255));&quot;&gt;заказах&lt;/span&gt;&lt;/div&gt;&lt;/div&gt;" style="shape=parallelogram;perimeter=parallelogramPerimeter;whiteSpace=wrap;html=1;fixedSize=1;fillColor=#f8cecc;strokeColor=#b85450;" parent="1" vertex="1">
          <mxGeometry x="1030" y="410" width="259" height="100" as="geometry" />
        </mxCell>
        <mxCell id="wkyCnmXRXpHUXjeOiAia-77" value="&lt;div&gt;Подается на участие в&amp;nbsp;&lt;/div&gt;&lt;div&gt;заданиях&lt;/div&gt;" style="rounded=1;whiteSpace=wrap;html=1;fillColor=#dae8fc;strokeColor=#6c8ebf;" parent="1" vertex="1">
          <mxGeometry x="810" y="540" width="200" height="90" as="geometry" />
        </mxCell>
        <mxCell id="wkyCnmXRXpHUXjeOiAia-64" value="Ограничение / валидация&lt;div&gt;на безопасность со стороны системы&lt;/div&gt;" style="shape=parallelogram;perimeter=parallelogramPerimeter;whiteSpace=wrap;html=1;fixedSize=1;fillColor=#f8cecc;strokeColor=#b85450;" parent="1" vertex="1">
          <mxGeometry x="1151" y="70" width="259" height="90" as="geometry" />
        </mxCell>
        <mxCell id="wkyCnmXRXpHUXjeOiAia-68" value="Общее событие / действие" style="rounded=1;whiteSpace=wrap;html=1;align=center;fillColor=#dae8fc;strokeColor=#6c8ebf;" parent="1" vertex="1">
          <mxGeometry x="460" y="70.5" width="200" height="89" as="geometry" />
        </mxCell>
        <mxCell id="wkyCnmXRXpHUXjeOiAia-81" value="Наказание от системы" style="rounded=1;whiteSpace=wrap;html=1;align=center;fillColor=#fff2cc;strokeColor=#d6b656;" parent="1" vertex="1">
          <mxGeometry x="687" y="70.5" width="200" height="89" as="geometry" />
        </mxCell>
        <mxCell id="wkyCnmXRXpHUXjeOiAia-82" value="Вознаграждение от системы" style="rounded=1;whiteSpace=wrap;html=1;align=center;fillColor=#d5e8d4;strokeColor=#82b366;" parent="1" vertex="1">
          <mxGeometry x="917" y="70.5" width="200" height="89" as="geometry" />
        </mxCell>
        <mxCell id="wkyCnmXRXpHUXjeOiAia-84" value="При первом заходе на платформу, всем единожды выдается рейтинг в форме спец. токенов (1000)" style="rounded=1;whiteSpace=wrap;html=1;align=center;fillColor=#d5e8d4;strokeColor=#82b366;" parent="1" vertex="1">
          <mxGeometry x="370" y="410" width="200" height="100" as="geometry" />
        </mxCell>
        <mxCell id="wkyCnmXRXpHUXjeOiAia-85" value="Ограниченное кол-во одновременных&lt;div&gt;заданий, в которых может&lt;/div&gt;&lt;div&gt;&lt;span style=&quot;background-color: transparent; color: light-dark(rgb(0, 0, 0), rgb(255, 255, 255));&quot;&gt;взять / податься / участовать один пользователь&amp;nbsp;&lt;/span&gt;&lt;span style=&quot;background-color: transparent; color: light-dark(rgb(0, 0, 0), rgb(255, 255, 255));&quot;&gt;(&amp;lt;=10)&lt;/span&gt;&lt;/div&gt;" style="shape=parallelogram;perimeter=parallelogramPerimeter;whiteSpace=wrap;html=1;fixedSize=1;fillColor=#f8cecc;strokeColor=#b85450;" parent="1" vertex="1">
          <mxGeometry x="1030" y="540" width="259" height="89" as="geometry" />
        </mxCell>
        <mxCell id="wkyCnmXRXpHUXjeOiAia-89" value="" style="endArrow=classic;html=1;rounded=0;exitX=1;exitY=0.5;exitDx=0;exitDy=0;entryX=0;entryY=0.5;entryDx=0;entryDy=0;" parent="1" source="wkyCnmXRXpHUXjeOiAia-52" target="wkyCnmXRXpHUXjeOiAia-77" edge="1">
          <mxGeometry width="50" height="50" relative="1" as="geometry">
            <mxPoint x="800" y="470" as="sourcePoint" />
            <mxPoint x="850" y="420" as="targetPoint" />
          </mxGeometry>
        </mxCell>
        <mxCell id="wkyCnmXRXpHUXjeOiAia-91" value="&lt;font style=&quot;color: rgb(0, 0, 0);&quot;&gt;Доп. пояснение&lt;/font&gt;" style="rounded=1;whiteSpace=wrap;html=1;align=center;fillColor=#f5f5f5;strokeColor=#666666;fontColor=#333333;" parent="1" vertex="1">
          <mxGeometry x="1444" y="70" width="200" height="89" as="geometry" />
        </mxCell>
        <mxCell id="wkyCnmXRXpHUXjeOiAia-92" value="&lt;span style=&quot;color: rgb(0, 0, 0);&quot;&gt;Пользователь может быть одновременно заказчиком и исполнителем&lt;/span&gt;" style="rounded=1;whiteSpace=wrap;html=1;align=center;fillColor=#f5f5f5;strokeColor=#666666;fontColor=#333333;" parent="1" vertex="1">
          <mxGeometry x="810" y="410" width="200" height="100" as="geometry" />
        </mxCell>
        <mxCell id="wkyCnmXRXpHUXjeOiAia-93" value="&lt;font style=&quot;color: rgb(0, 0, 0);&quot;&gt;Рейтинг можно повышать&lt;/font&gt;&lt;div&gt;&lt;font style=&quot;color: rgb(0, 0, 0);&quot;&gt;либо уменьшать:&lt;/font&gt;&lt;div&gt;&lt;font style=&quot;color: rgb(0, 0, 0);&quot;&gt;1. верхний порог &amp;lt;= 5000, не выдаются токены если уже лимит&lt;/font&gt;&lt;/div&gt;&lt;div&gt;&lt;font style=&quot;color: rgb(0, 0, 0);&quot;&gt;2. нижний порог &amp;gt;= 100, а дальше блокировка на платформе&lt;/font&gt;&lt;/div&gt;&lt;/div&gt;" style="rounded=1;whiteSpace=wrap;html=1;align=center;fillColor=#f5f5f5;strokeColor=#666666;fontColor=#333333;" parent="1" vertex="1">
          <mxGeometry x="590" y="410" width="200" height="100" as="geometry" />
        </mxCell>
        <mxCell id="wkyCnmXRXpHUXjeOiAia-95" value="Дополнительная защита&lt;div&gt;от накрутки и ботов&lt;/div&gt;&lt;div&gt;- проверка баланса кошелька&lt;/div&gt;&lt;div&gt;- время создания кошелька&lt;/div&gt;&lt;div&gt;- цифровая подпись и т.д.&lt;/div&gt;" style="shape=parallelogram;perimeter=parallelogramPerimeter;whiteSpace=wrap;html=1;fixedSize=1;fillColor=#f8cecc;strokeColor=#b85450;" parent="1" vertex="1">
          <mxGeometry x="1310" y="280" width="259" height="350" as="geometry" />
        </mxCell>
        <mxCell id="wkyCnmXRXpHUXjeOiAia-97" value="Выполняет задачу&lt;div&gt;в заданное время&lt;div&gt;и прикладывает отчет&lt;/div&gt;&lt;/div&gt;" style="rounded=1;whiteSpace=wrap;html=1;fillColor=#dae8fc;strokeColor=#6c8ebf;" parent="1" vertex="1">
          <mxGeometry x="1811" y="539" width="200" height="90" as="geometry" />
        </mxCell>
        <mxCell id="wkyCnmXRXpHUXjeOiAia-100" value="Если да, то повышается&lt;div&gt;рейтинг (+10)&amp;nbsp;&lt;/div&gt;" style="rounded=1;whiteSpace=wrap;html=1;fillColor=#d5e8d4;strokeColor=#82b366;" parent="1" vertex="1">
          <mxGeometry x="2030" y="540" width="200" height="40" as="geometry" />
        </mxCell>
        <mxCell id="wkyCnmXRXpHUXjeOiAia-101" value="" style="endArrow=classic;html=1;rounded=0;exitX=1;exitY=0.5;exitDx=0;exitDy=0;entryX=0;entryY=0.5;entryDx=0;entryDy=0;" parent="1" source="wkyCnmXRXpHUXjeOiAia-97" target="wkyCnmXRXpHUXjeOiAia-27" edge="1">
          <mxGeometry width="50" height="50" relative="1" as="geometry">
            <mxPoint x="1880" y="510" as="sourcePoint" />
            <mxPoint x="1930" y="460" as="targetPoint" />
          </mxGeometry>
        </mxCell>
        <mxCell id="wkyCnmXRXpHUXjeOiAia-102" value="" style="endArrow=classic;html=1;rounded=0;exitX=1;exitY=0.5;exitDx=0;exitDy=0;entryX=0;entryY=0.5;entryDx=0;entryDy=0;" parent="1" source="wkyCnmXRXpHUXjeOiAia-97" target="wkyCnmXRXpHUXjeOiAia-100" edge="1">
          <mxGeometry width="50" height="50" relative="1" as="geometry">
            <mxPoint x="2021" y="594" as="sourcePoint" />
            <mxPoint x="2040" y="570" as="targetPoint" />
          </mxGeometry>
        </mxCell>
        <mxCell id="wkyCnmXRXpHUXjeOiAia-105" value="TODO:&amp;nbsp;&lt;div&gt;- что если исполнитель ничего не загрузит или загрузит невалюдную / пустую информацию или ссылку&lt;br&gt;&lt;/div&gt;" style="rounded=1;whiteSpace=wrap;html=1;" parent="1" vertex="1">
          <mxGeometry x="1811" y="420" width="200" height="70" as="geometry" />
        </mxCell>
        <mxCell id="wkyCnmXRXpHUXjeOiAia-106" value="TODO: система должна покрыть затраты и как то защитить стороны, сделать выплату при непредвиденных обстоятельства - страховка?" style="rounded=1;whiteSpace=wrap;html=1;" parent="1" vertex="1">
          <mxGeometry x="2030" y="420" width="200" height="70" as="geometry" />
        </mxCell>
        <mxCell id="wkyCnmXRXpHUXjeOiAia-107" value="TODO: выплаты 30, 30, 30&lt;div&gt;выплаты частями 50/50&lt;/div&gt;" style="rounded=1;whiteSpace=wrap;html=1;" parent="1" vertex="1">
          <mxGeometry x="2250" y="420" width="200" height="70" as="geometry" />
        </mxCell>
        <mxCell id="wkyCnmXRXpHUXjeOiAia-109" value="Если нет, то снижается&lt;div&gt;рейтинг (-50)&lt;/div&gt;" style="rounded=1;whiteSpace=wrap;html=1;fillColor=#fff2cc;strokeColor=#d6b656;" parent="1" vertex="1">
          <mxGeometry x="2250" y="328" width="200" height="41" as="geometry" />
        </mxCell>
        <mxCell id="wkyCnmXRXpHUXjeOiAia-110" value="Если да, то повышается&lt;div&gt;рейтинг (+10)&amp;nbsp;&lt;/div&gt;" style="rounded=1;whiteSpace=wrap;html=1;fillColor=#d5e8d4;strokeColor=#82b366;" parent="1" vertex="1">
          <mxGeometry x="2250" y="280" width="200" height="40" as="geometry" />
        </mxCell>
        <mxCell id="wkyCnmXRXpHUXjeOiAia-111" value="" style="endArrow=classic;html=1;rounded=0;entryX=0;entryY=0.5;entryDx=0;entryDy=0;exitX=1;exitY=0.5;exitDx=0;exitDy=0;" parent="1" source="wkyCnmXRXpHUXjeOiAia-29" target="wkyCnmXRXpHUXjeOiAia-110" edge="1">
          <mxGeometry width="50" height="50" relative="1" as="geometry">
            <mxPoint x="2100" y="440" as="sourcePoint" />
            <mxPoint x="2150" y="390" as="targetPoint" />
          </mxGeometry>
        </mxCell>
        <mxCell id="wkyCnmXRXpHUXjeOiAia-112" value="" style="endArrow=classic;html=1;rounded=0;entryX=0;entryY=0.5;entryDx=0;entryDy=0;exitX=1;exitY=0.5;exitDx=0;exitDy=0;" parent="1" source="wkyCnmXRXpHUXjeOiAia-29" target="wkyCnmXRXpHUXjeOiAia-109" edge="1">
          <mxGeometry width="50" height="50" relative="1" as="geometry">
            <mxPoint x="2100" y="440" as="sourcePoint" />
            <mxPoint x="2150" y="390" as="targetPoint" />
          </mxGeometry>
        </mxCell>
        <mxCell id="wkyCnmXRXpHUXjeOiAia-116" value="" style="rounded=0;whiteSpace=wrap;html=1;" parent="1" vertex="1">
          <mxGeometry x="10" y="723" width="2460" height="767" as="geometry" />
        </mxCell>
        <mxCell id="wkyCnmXRXpHUXjeOiAia-117" value="&lt;b&gt;Visual Design&lt;/b&gt;" style="text;html=1;align=center;verticalAlign=middle;whiteSpace=wrap;rounded=0;" parent="1" vertex="1">
          <mxGeometry x="10" y="693" width="90" height="30" as="geometry" />
        </mxCell>
        <mxCell id="wkyCnmXRXpHUXjeOiAia-118" value="" style="rounded=0;whiteSpace=wrap;html=1;" parent="1" vertex="1">
          <mxGeometry x="20" y="733" width="590" height="317" as="geometry" />
        </mxCell>
        <mxCell id="wkyCnmXRXpHUXjeOiAia-119" value="HomePage (Not auth)" style="text;html=1;align=center;verticalAlign=middle;whiteSpace=wrap;rounded=0;fontStyle=1" parent="1" vertex="1">
          <mxGeometry x="274.5" y="1060" width="81" height="30" as="geometry" />
        </mxCell>
        <mxCell id="wkyCnmXRXpHUXjeOiAia-120" value="" style="rounded=1;whiteSpace=wrap;html=1;" parent="1" vertex="1">
          <mxGeometry x="480" y="740" width="120" height="40" as="geometry" />
        </mxCell>
        <mxCell id="wkyCnmXRXpHUXjeOiAia-121" value="Login with metamask" style="text;html=1;align=center;verticalAlign=middle;whiteSpace=wrap;rounded=0;" parent="1" vertex="1">
          <mxGeometry x="499.5" y="745" width="81" height="30" as="geometry" />
        </mxCell>
        <mxCell id="wkyCnmXRXpHUXjeOiAia-123" value="" style="rounded=1;whiteSpace=wrap;html=1;" parent="1" vertex="1">
          <mxGeometry x="30" y="740" width="120" height="40" as="geometry" />
        </mxCell>
        <mxCell id="wkyCnmXRXpHUXjeOiAia-125" value="Logo" style="text;html=1;align=center;verticalAlign=middle;whiteSpace=wrap;rounded=0;" parent="1" vertex="1">
          <mxGeometry x="49.49999999999997" y="745" width="81" height="30" as="geometry" />
        </mxCell>
        <mxCell id="wkyCnmXRXpHUXjeOiAia-126" value="" style="rounded=1;whiteSpace=wrap;html=1;" parent="1" vertex="1">
          <mxGeometry x="162" y="740" width="306" height="40" as="geometry" />
        </mxCell>
        <mxCell id="wkyCnmXRXpHUXjeOiAia-127" value="Search / Header" style="text;html=1;align=center;verticalAlign=middle;whiteSpace=wrap;rounded=0;" parent="1" vertex="1">
          <mxGeometry x="266.25" y="745" width="95.5" height="30" as="geometry" />
        </mxCell>
        <mxCell id="wkyCnmXRXpHUXjeOiAia-132" value="" style="edgeStyle=orthogonalEdgeStyle;rounded=0;orthogonalLoop=1;jettySize=auto;html=1;" parent="1" edge="1">
          <mxGeometry relative="1" as="geometry">
            <mxPoint x="315" y="939.9999999999998" as="targetPoint" />
          </mxGeometry>
        </mxCell>
        <mxCell id="wkyCnmXRXpHUXjeOiAia-137" value="" style="rounded=1;whiteSpace=wrap;html=1;" parent="1" vertex="1">
          <mxGeometry x="28" y="1000" width="572" height="40" as="geometry" />
        </mxCell>
        <mxCell id="wkyCnmXRXpHUXjeOiAia-139" value="Footer" style="text;html=1;align=center;verticalAlign=middle;whiteSpace=wrap;rounded=0;" parent="1" vertex="1">
          <mxGeometry x="274.5" y="1005" width="81" height="30" as="geometry" />
        </mxCell>
        <mxCell id="wkyCnmXRXpHUXjeOiAia-143" value="HomePage&lt;div&gt;(Auth)&lt;/div&gt;" style="text;html=1;align=center;verticalAlign=middle;whiteSpace=wrap;rounded=0;fontStyle=1" parent="1" vertex="1">
          <mxGeometry x="274.5" y="1437" width="81" height="30" as="geometry" />
        </mxCell>
        <mxCell id="wkyCnmXRXpHUXjeOiAia-144" value="" style="rounded=0;whiteSpace=wrap;html=1;" parent="1" vertex="1">
          <mxGeometry x="20" y="1110" width="590" height="317" as="geometry" />
        </mxCell>
        <mxCell id="wkyCnmXRXpHUXjeOiAia-145" value="" style="rounded=1;whiteSpace=wrap;html=1;" parent="1" vertex="1">
          <mxGeometry x="480" y="1117" width="120" height="40" as="geometry" />
        </mxCell>
        <mxCell id="wkyCnmXRXpHUXjeOiAia-146" value="Current profile&lt;div&gt;address:&amp;nbsp;&lt;span style=&quot;background-color: transparent; color: light-dark(rgb(0, 0, 0), rgb(255, 255, 255));&quot;&gt;x0000&lt;/span&gt;&lt;/div&gt;" style="text;html=1;align=center;verticalAlign=middle;whiteSpace=wrap;rounded=0;" parent="1" vertex="1">
          <mxGeometry x="496.1899999999998" y="1122" width="87.63" height="30" as="geometry" />
        </mxCell>
        <mxCell id="wkyCnmXRXpHUXjeOiAia-147" value="" style="rounded=1;whiteSpace=wrap;html=1;" parent="1" vertex="1">
          <mxGeometry x="30" y="1117" width="120" height="40" as="geometry" />
        </mxCell>
        <mxCell id="wkyCnmXRXpHUXjeOiAia-148" value="Logo" style="text;html=1;align=center;verticalAlign=middle;whiteSpace=wrap;rounded=0;" parent="1" vertex="1">
          <mxGeometry x="49.5" y="1122" width="81" height="30" as="geometry" />
        </mxCell>
        <mxCell id="wkyCnmXRXpHUXjeOiAia-149" value="" style="rounded=1;whiteSpace=wrap;html=1;" parent="1" vertex="1">
          <mxGeometry x="162" y="1117" width="306" height="40" as="geometry" />
        </mxCell>
        <mxCell id="wkyCnmXRXpHUXjeOiAia-150" value="Search / Header" style="text;html=1;align=center;verticalAlign=middle;whiteSpace=wrap;rounded=0;" parent="1" vertex="1">
          <mxGeometry x="266.25" y="1122" width="95.5" height="30" as="geometry" />
        </mxCell>
        <mxCell id="wkyCnmXRXpHUXjeOiAia-151" value="" style="rounded=1;whiteSpace=wrap;html=1;" parent="1" vertex="1">
          <mxGeometry x="30" y="1217" width="570" height="30" as="geometry" />
        </mxCell>
        <mxCell id="wkyCnmXRXpHUXjeOiAia-152" value="Last tasks publications" style="text;html=1;align=center;verticalAlign=middle;whiteSpace=wrap;rounded=0;" parent="1" vertex="1">
          <mxGeometry x="243.63" y="1187" width="142.75" height="30" as="geometry" />
        </mxCell>
        <mxCell id="wkyCnmXRXpHUXjeOiAia-153" value="" style="rounded=1;whiteSpace=wrap;html=1;" parent="1" vertex="1">
          <mxGeometry x="28" y="1377" width="572" height="40" as="geometry" />
        </mxCell>
        <mxCell id="wkyCnmXRXpHUXjeOiAia-154" value="Footer" style="text;html=1;align=center;verticalAlign=middle;whiteSpace=wrap;rounded=0;" parent="1" vertex="1">
          <mxGeometry x="274.5" y="1382" width="81" height="30" as="geometry" />
        </mxCell>
        <mxCell id="wkyCnmXRXpHUXjeOiAia-155" value="" style="rounded=1;whiteSpace=wrap;html=1;" parent="1" vertex="1">
          <mxGeometry x="30" y="1256.5" width="570" height="30" as="geometry" />
        </mxCell>
        <mxCell id="wkyCnmXRXpHUXjeOiAia-156" value="" style="rounded=1;whiteSpace=wrap;html=1;" parent="1" vertex="1">
          <mxGeometry x="30" y="1297" width="570" height="30" as="geometry" />
        </mxCell>
        <mxCell id="wkyCnmXRXpHUXjeOiAia-157" value="" style="rounded=0;whiteSpace=wrap;html=1;" parent="1" vertex="1">
          <mxGeometry x="630" y="733" width="590" height="317" as="geometry" />
        </mxCell>
        <mxCell id="wkyCnmXRXpHUXjeOiAia-158" value="ProfilePage" style="text;html=1;align=center;verticalAlign=middle;whiteSpace=wrap;rounded=0;fontStyle=1" parent="1" vertex="1">
          <mxGeometry x="884.5" y="1060" width="81" height="30" as="geometry" />
        </mxCell>
        <mxCell id="wkyCnmXRXpHUXjeOiAia-159" value="" style="rounded=1;whiteSpace=wrap;html=1;" parent="1" vertex="1">
          <mxGeometry x="1090" y="740" width="120" height="40" as="geometry" />
        </mxCell>
        <mxCell id="wkyCnmXRXpHUXjeOiAia-160" value="Current profile&lt;div&gt;address:&amp;nbsp;&lt;span style=&quot;background-color: transparent; color: light-dark(rgb(0, 0, 0), rgb(255, 255, 255));&quot;&gt;x0000&lt;/span&gt;&lt;/div&gt;" style="text;html=1;align=center;verticalAlign=middle;whiteSpace=wrap;rounded=0;" parent="1" vertex="1">
          <mxGeometry x="1109.5" y="745" width="81" height="30" as="geometry" />
        </mxCell>
        <mxCell id="wkyCnmXRXpHUXjeOiAia-161" value="" style="rounded=1;whiteSpace=wrap;html=1;" parent="1" vertex="1">
          <mxGeometry x="640" y="740" width="120" height="40" as="geometry" />
        </mxCell>
        <mxCell id="wkyCnmXRXpHUXjeOiAia-162" value="Logo" style="text;html=1;align=center;verticalAlign=middle;whiteSpace=wrap;rounded=0;" parent="1" vertex="1">
          <mxGeometry x="659.5" y="745" width="81" height="30" as="geometry" />
        </mxCell>
        <mxCell id="wkyCnmXRXpHUXjeOiAia-163" value="" style="rounded=1;whiteSpace=wrap;html=1;" parent="1" vertex="1">
          <mxGeometry x="772" y="740" width="306" height="40" as="geometry" />
        </mxCell>
        <mxCell id="wkyCnmXRXpHUXjeOiAia-164" value="Search / Header" style="text;html=1;align=center;verticalAlign=middle;whiteSpace=wrap;rounded=0;" parent="1" vertex="1">
          <mxGeometry x="876.25" y="745" width="95.5" height="30" as="geometry" />
        </mxCell>
        <mxCell id="wkyCnmXRXpHUXjeOiAia-167" value="" style="rounded=1;whiteSpace=wrap;html=1;" parent="1" vertex="1">
          <mxGeometry x="638" y="1000" width="572" height="40" as="geometry" />
        </mxCell>
        <mxCell id="wkyCnmXRXpHUXjeOiAia-168" value="Footer" style="text;html=1;align=center;verticalAlign=middle;whiteSpace=wrap;rounded=0;" parent="1" vertex="1">
          <mxGeometry x="884.5" y="1005" width="81" height="30" as="geometry" />
        </mxCell>
        <mxCell id="wkyCnmXRXpHUXjeOiAia-172" value="- Current Address: x0000000&lt;div&gt;- Task publications: []&lt;/div&gt;&lt;div&gt;- Work performed: []&lt;/div&gt;&lt;div&gt;- Rating:&amp;nbsp;&lt;/div&gt;" style="text;html=1;align=left;verticalAlign=middle;whiteSpace=wrap;rounded=0;" parent="1" vertex="1">
          <mxGeometry x="805" y="840" width="195" height="70" as="geometry" />
        </mxCell>
        <mxCell id="wkyCnmXRXpHUXjeOiAia-173" value="" style="rounded=1;whiteSpace=wrap;html=1;" parent="1" vertex="1">
          <mxGeometry x="858" y="892.5" width="160" height="10" as="geometry" />
        </mxCell>
        <mxCell id="wkyCnmXRXpHUXjeOiAia-174" value="100" style="text;html=1;align=center;verticalAlign=middle;whiteSpace=wrap;rounded=0;" parent="1" vertex="1">
          <mxGeometry x="850" y="910" width="30" height="20" as="geometry" />
        </mxCell>
        <mxCell id="wkyCnmXRXpHUXjeOiAia-175" value="5000" style="text;html=1;align=center;verticalAlign=middle;whiteSpace=wrap;rounded=0;" parent="1" vertex="1">
          <mxGeometry x="1000" y="910" width="30" height="20" as="geometry" />
        </mxCell>
        <mxCell id="wkyCnmXRXpHUXjeOiAia-176" value="" style="rounded=1;whiteSpace=wrap;html=1;fillColor=#d5e8d4;strokeColor=#82b366;" parent="1" vertex="1">
          <mxGeometry x="858" y="892.5" width="127" height="10" as="geometry" />
        </mxCell>
        <mxCell id="wkyCnmXRXpHUXjeOiAia-177" value="" style="rounded=0;whiteSpace=wrap;html=1;" parent="1" vertex="1">
          <mxGeometry x="630" y="1110" width="590" height="317" as="geometry" />
        </mxCell>
        <mxCell id="wkyCnmXRXpHUXjeOiAia-178" value="TasksPage" style="text;html=1;align=center;verticalAlign=middle;whiteSpace=wrap;rounded=0;fontStyle=1" parent="1" vertex="1">
          <mxGeometry x="884.5" y="1437" width="81" height="30" as="geometry" />
        </mxCell>
        <mxCell id="wkyCnmXRXpHUXjeOiAia-179" value="" style="rounded=1;whiteSpace=wrap;html=1;" parent="1" vertex="1">
          <mxGeometry x="1090" y="1117" width="120" height="40" as="geometry" />
        </mxCell>
        <mxCell id="wkyCnmXRXpHUXjeOiAia-180" value="Current profile&lt;div&gt;address:&amp;nbsp;&lt;span style=&quot;background-color: transparent; color: light-dark(rgb(0, 0, 0), rgb(255, 255, 255));&quot;&gt;x0000&lt;/span&gt;&lt;/div&gt;" style="text;html=1;align=center;verticalAlign=middle;whiteSpace=wrap;rounded=0;" parent="1" vertex="1">
          <mxGeometry x="1109.5" y="1122" width="81" height="30" as="geometry" />
        </mxCell>
        <mxCell id="wkyCnmXRXpHUXjeOiAia-181" value="" style="rounded=1;whiteSpace=wrap;html=1;" parent="1" vertex="1">
          <mxGeometry x="640" y="1117" width="120" height="40" as="geometry" />
        </mxCell>
        <mxCell id="wkyCnmXRXpHUXjeOiAia-182" value="Logo" style="text;html=1;align=center;verticalAlign=middle;whiteSpace=wrap;rounded=0;" parent="1" vertex="1">
          <mxGeometry x="659.5" y="1122" width="81" height="30" as="geometry" />
        </mxCell>
        <mxCell id="wkyCnmXRXpHUXjeOiAia-183" value="" style="rounded=1;whiteSpace=wrap;html=1;" parent="1" vertex="1">
          <mxGeometry x="772" y="1117" width="306" height="40" as="geometry" />
        </mxCell>
        <mxCell id="wkyCnmXRXpHUXjeOiAia-184" value="Search / Header" style="text;html=1;align=center;verticalAlign=middle;whiteSpace=wrap;rounded=0;" parent="1" vertex="1">
          <mxGeometry x="876.25" y="1122" width="95.5" height="30" as="geometry" />
        </mxCell>
        <mxCell id="wkyCnmXRXpHUXjeOiAia-185" value="" style="rounded=1;whiteSpace=wrap;html=1;" parent="1" vertex="1">
          <mxGeometry x="638" y="1377" width="572" height="40" as="geometry" />
        </mxCell>
        <mxCell id="wkyCnmXRXpHUXjeOiAia-186" value="Footer" style="text;html=1;align=center;verticalAlign=middle;whiteSpace=wrap;rounded=0;" parent="1" vertex="1">
          <mxGeometry x="884.5" y="1382" width="81" height="30" as="geometry" />
        </mxCell>
        <mxCell id="wkyCnmXRXpHUXjeOiAia-196" value="" style="rounded=1;whiteSpace=wrap;html=1;" parent="1" vertex="1">
          <mxGeometry x="640" y="1274.75" width="570" height="30" as="geometry" />
        </mxCell>
        <mxCell id="wkyCnmXRXpHUXjeOiAia-198" value="" style="rounded=1;whiteSpace=wrap;html=1;" parent="1" vertex="1">
          <mxGeometry x="640.5" y="1316.25" width="570" height="30" as="geometry" />
        </mxCell>
        <mxCell id="wkyCnmXRXpHUXjeOiAia-200" value="" style="rounded=1;whiteSpace=wrap;html=1;" parent="1" vertex="1">
          <mxGeometry x="640" y="1233.75" width="570" height="30" as="geometry" />
        </mxCell>
        <mxCell id="wkyCnmXRXpHUXjeOiAia-201" value="Some Task 1 - By: x0001&amp;nbsp;" style="text;html=1;align=center;verticalAlign=middle;whiteSpace=wrap;rounded=0;" parent="1" vertex="1">
          <mxGeometry x="640.5" y="1233.75" width="159.5" height="30" as="geometry" />
        </mxCell>
        <mxCell id="wkyCnmXRXpHUXjeOiAia-205" value="" style="rounded=1;whiteSpace=wrap;html=1;" parent="1" vertex="1">
          <mxGeometry x="640.5" y="1196.75" width="111" height="30" as="geometry" />
        </mxCell>
        <mxCell id="wkyCnmXRXpHUXjeOiAia-206" value="Add new" style="text;html=1;align=center;verticalAlign=middle;whiteSpace=wrap;rounded=0;" parent="1" vertex="1">
          <mxGeometry x="651" y="1196.75" width="90" height="30" as="geometry" />
        </mxCell>
        <mxCell id="wkyCnmXRXpHUXjeOiAia-211" value="Some Task 2 - By: x0002&amp;nbsp;" style="text;html=1;align=center;verticalAlign=middle;whiteSpace=wrap;rounded=0;" parent="1" vertex="1">
          <mxGeometry x="640.5" y="1274.75" width="159.5" height="30" as="geometry" />
        </mxCell>
        <mxCell id="wkyCnmXRXpHUXjeOiAia-212" value="Some Task 3 - By: x0003&amp;nbsp;" style="text;html=1;align=center;verticalAlign=middle;whiteSpace=wrap;rounded=0;" parent="1" vertex="1">
          <mxGeometry x="640.5" y="1316.25" width="159.5" height="30" as="geometry" />
        </mxCell>
        <mxCell id="wkyCnmXRXpHUXjeOiAia-230" value="" style="rounded=0;whiteSpace=wrap;html=1;" parent="1" vertex="1">
          <mxGeometry x="1240" y="1111.25" width="590" height="317" as="geometry" />
        </mxCell>
        <mxCell id="wkyCnmXRXpHUXjeOiAia-231" value="TaskPage" style="text;html=1;align=center;verticalAlign=middle;whiteSpace=wrap;rounded=0;fontStyle=1" parent="1" vertex="1">
          <mxGeometry x="1494.5" y="1438.25" width="81" height="30" as="geometry" />
        </mxCell>
        <mxCell id="wkyCnmXRXpHUXjeOiAia-232" value="" style="rounded=1;whiteSpace=wrap;html=1;" parent="1" vertex="1">
          <mxGeometry x="1700" y="1118.25" width="120" height="40" as="geometry" />
        </mxCell>
        <mxCell id="wkyCnmXRXpHUXjeOiAia-233" value="Current profile&lt;div&gt;address:&amp;nbsp;&lt;span style=&quot;background-color: transparent; color: light-dark(rgb(0, 0, 0), rgb(255, 255, 255));&quot;&gt;x0000&lt;/span&gt;&lt;/div&gt;" style="text;html=1;align=center;verticalAlign=middle;whiteSpace=wrap;rounded=0;" parent="1" vertex="1">
          <mxGeometry x="1719.5" y="1123.25" width="81" height="30" as="geometry" />
        </mxCell>
        <mxCell id="wkyCnmXRXpHUXjeOiAia-234" value="" style="rounded=1;whiteSpace=wrap;html=1;" parent="1" vertex="1">
          <mxGeometry x="1250" y="1118.25" width="120" height="40" as="geometry" />
        </mxCell>
        <mxCell id="wkyCnmXRXpHUXjeOiAia-235" value="Logo" style="text;html=1;align=center;verticalAlign=middle;whiteSpace=wrap;rounded=0;" parent="1" vertex="1">
          <mxGeometry x="1269.5" y="1123.25" width="81" height="30" as="geometry" />
        </mxCell>
        <mxCell id="wkyCnmXRXpHUXjeOiAia-236" value="" style="rounded=1;whiteSpace=wrap;html=1;" parent="1" vertex="1">
          <mxGeometry x="1382" y="1118.25" width="306" height="40" as="geometry" />
        </mxCell>
        <mxCell id="wkyCnmXRXpHUXjeOiAia-237" value="Search / Header" style="text;html=1;align=center;verticalAlign=middle;whiteSpace=wrap;rounded=0;" parent="1" vertex="1">
          <mxGeometry x="1486.25" y="1123.25" width="95.5" height="30" as="geometry" />
        </mxCell>
        <mxCell id="wkyCnmXRXpHUXjeOiAia-238" value="" style="rounded=1;whiteSpace=wrap;html=1;" parent="1" vertex="1">
          <mxGeometry x="1248" y="1378.25" width="572" height="40" as="geometry" />
        </mxCell>
        <mxCell id="wkyCnmXRXpHUXjeOiAia-239" value="Footer" style="text;html=1;align=center;verticalAlign=middle;whiteSpace=wrap;rounded=0;" parent="1" vertex="1">
          <mxGeometry x="1494.5" y="1383.25" width="81" height="30" as="geometry" />
        </mxCell>
        <mxCell id="wkyCnmXRXpHUXjeOiAia-243" value="Some Task 1 - By: x0001&lt;br&gt;-&amp;nbsp; time&lt;div&gt;- description&lt;/div&gt;&lt;div&gt;- some files, etc.&lt;/div&gt;&lt;div&gt;- limits and rules&lt;/div&gt;" style="text;html=1;align=left;verticalAlign=middle;whiteSpace=wrap;rounded=0;" parent="1" vertex="1">
          <mxGeometry x="1430.5" y="1205.6299999999999" width="160.5" height="86.25" as="geometry" />
        </mxCell>
        <mxCell id="wkyCnmXRXpHUXjeOiAia-248" value="Participate" style="text;html=1;align=center;verticalAlign=middle;whiteSpace=wrap;rounded=0;" parent="1" vertex="1">
          <mxGeometry x="1150" y="1233.75" width="60" height="30" as="geometry" />
        </mxCell>
        <mxCell id="wkyCnmXRXpHUXjeOiAia-249" value="Participate" style="text;html=1;align=center;verticalAlign=middle;whiteSpace=wrap;rounded=0;" parent="1" vertex="1">
          <mxGeometry x="1151" y="1274.75" width="60" height="30" as="geometry" />
        </mxCell>
        <mxCell id="wkyCnmXRXpHUXjeOiAia-250" value="Participate" style="text;html=1;align=center;verticalAlign=middle;whiteSpace=wrap;rounded=0;" parent="1" vertex="1">
          <mxGeometry x="1150" y="1316.25" width="60" height="30" as="geometry" />
        </mxCell>
        <mxCell id="wkyCnmXRXpHUXjeOiAia-251" value="" style="rounded=0;whiteSpace=wrap;html=1;" parent="1" vertex="1">
          <mxGeometry x="1260" y="1200.75" width="160" height="138" as="geometry" />
        </mxCell>
        <mxCell id="wkyCnmXRXpHUXjeOiAia-252" value="image" style="text;html=1;align=left;verticalAlign=middle;whiteSpace=wrap;rounded=0;" parent="1" vertex="1">
          <mxGeometry x="1325" y="1256.5" width="30" height="30" as="geometry" />
        </mxCell>
        <mxCell id="wkyCnmXRXpHUXjeOiAia-253" value="" style="rounded=1;whiteSpace=wrap;html=1;" parent="1" vertex="1">
          <mxGeometry x="1431" y="1307" width="160" height="10" as="geometry" />
        </mxCell>
        <mxCell id="wkyCnmXRXpHUXjeOiAia-254" value="" style="rounded=1;whiteSpace=wrap;html=1;fillColor=#d5e8d4;strokeColor=#82b366;" parent="1" vertex="1">
          <mxGeometry x="1431" y="1307" width="129" height="10" as="geometry" />
        </mxCell>
        <mxCell id="wkyCnmXRXpHUXjeOiAia-255" value="0" style="text;html=1;align=center;verticalAlign=middle;whiteSpace=wrap;rounded=0;" parent="1" vertex="1">
          <mxGeometry x="1421" y="1321.25" width="30" height="20" as="geometry" />
        </mxCell>
        <mxCell id="wkyCnmXRXpHUXjeOiAia-256" value="5" style="text;html=1;align=center;verticalAlign=middle;whiteSpace=wrap;rounded=0;" parent="1" vertex="1">
          <mxGeometry x="1571" y="1321.25" width="30" height="20" as="geometry" />
        </mxCell>
        <mxCell id="wkyCnmXRXpHUXjeOiAia-258" value="" style="rounded=1;whiteSpace=wrap;html=1;" parent="1" vertex="1">
          <mxGeometry x="1644" y="1233.75" width="120" height="40" as="geometry" />
        </mxCell>
        <mxCell id="wkyCnmXRXpHUXjeOiAia-257" value="Participate" style="text;html=1;align=center;verticalAlign=middle;whiteSpace=wrap;rounded=0;" parent="1" vertex="1">
          <mxGeometry x="1670" y="1238.74" width="60" height="30" as="geometry" />
        </mxCell>
        <mxCell id="wkyCnmXRXpHUXjeOiAia-259" value="0.001 TBNB" style="text;html=1;align=center;verticalAlign=middle;whiteSpace=wrap;rounded=0;" parent="1" vertex="1">
          <mxGeometry x="884.5" y="1234.75" width="159.5" height="30" as="geometry" />
        </mxCell>
        <mxCell id="wkyCnmXRXpHUXjeOiAia-260" value="0.001 TBNB" style="text;html=1;align=center;verticalAlign=middle;whiteSpace=wrap;rounded=0;" parent="1" vertex="1">
          <mxGeometry x="887" y="1274.75" width="159.5" height="30" as="geometry" />
        </mxCell>
        <mxCell id="wkyCnmXRXpHUXjeOiAia-261" value="0.001 TBNB" style="text;html=1;align=center;verticalAlign=middle;whiteSpace=wrap;rounded=0;" parent="1" vertex="1">
          <mxGeometry x="884.5" y="1316.25" width="159.5" height="30" as="geometry" />
        </mxCell>
        <mxCell id="wkyCnmXRXpHUXjeOiAia-262" value="0.001 TBNB Reward" style="text;html=1;align=center;verticalAlign=middle;whiteSpace=wrap;rounded=0;" parent="1" vertex="1">
          <mxGeometry x="1432" y="1286.5" width="118" height="13.75" as="geometry" />
        </mxCell>
        <mxCell id="hQpZcuahVdaNMsb9Cztg-1" value="" style="endArrow=classic;html=1;rounded=0;exitX=1;exitY=0.5;exitDx=0;exitDy=0;entryX=0;entryY=0.5;entryDx=0;entryDy=0;" edge="1" parent="1" source="wkyCnmXRXpHUXjeOiAia-105" target="wkyCnmXRXpHUXjeOiAia-106">
          <mxGeometry width="50" height="50" relative="1" as="geometry">
            <mxPoint x="2120" y="560" as="sourcePoint" />
            <mxPoint x="2170" y="510" as="targetPoint" />
          </mxGeometry>
        </mxCell>
        <mxCell id="hQpZcuahVdaNMsb9Cztg-3" value="&lt;span style=&quot;text-align: left;&quot;&gt;TODO: balance&lt;/span&gt;&lt;div&gt;&lt;span style=&quot;text-align: left;&quot;&gt;unit economics of rating tokens&lt;/span&gt;&lt;/div&gt;" style="rounded=1;whiteSpace=wrap;html=1;" vertex="1" parent="1">
          <mxGeometry x="2694.5" y="420" width="200" height="70" as="geometry" />
        </mxCell>
        <mxCell id="hQpZcuahVdaNMsb9Cztg-4" value="&lt;span style=&quot;text-align: left;&quot;&gt;TODO: потенциальные будущие проблемы в системе, из-за увеличения кол-ва tasks в структуре данных, которая в дальнешем будет требовать больше и больше gas за транзакцию - нужен более выгодный и эффективный подход в evm&lt;/span&gt;" style="rounded=1;whiteSpace=wrap;html=1;" vertex="1" parent="1">
          <mxGeometry x="2920" y="280" width="200" height="360" as="geometry" />
        </mxCell>
        <mxCell id="hQpZcuahVdaNMsb9Cztg-5" value="Организация&lt;div&gt;создатель контракта&lt;/div&gt;" style="shape=umlActor;verticalLabelPosition=bottom;verticalAlign=top;html=1;outlineConnect=0;" vertex="1" parent="1">
          <mxGeometry x="73" y="425" width="30" height="60" as="geometry" />
        </mxCell>
        <mxCell id="hQpZcuahVdaNMsb9Cztg-8" value="DEBUG и&lt;div&gt;administrative функции для&lt;/div&gt;&lt;div&gt;поддержки обновления контракта&lt;/div&gt;&lt;div&gt;и других защитных мер&lt;/div&gt;" style="rounded=1;whiteSpace=wrap;html=1;" vertex="1" parent="1">
          <mxGeometry x="154.5" y="410" width="195.5" height="100" as="geometry" />
        </mxCell>
        <mxCell id="hQpZcuahVdaNMsb9Cztg-9" value="" style="endArrow=classic;html=1;rounded=0;entryX=0;entryY=0.5;entryDx=0;entryDy=0;" edge="1" parent="1" target="hQpZcuahVdaNMsb9Cztg-8">
          <mxGeometry width="50" height="50" relative="1" as="geometry">
            <mxPoint x="110" y="460" as="sourcePoint" />
            <mxPoint x="450" y="360" as="targetPoint" />
          </mxGeometry>
        </mxCell>
        <mxCell id="hQpZcuahVdaNMsb9Cztg-19" value="централизация -&amp;gt; децентрализация" style="text;html=1;align=center;verticalAlign=middle;whiteSpace=wrap;rounded=0;fontSize=8;" vertex="1" parent="1">
          <mxGeometry x="123.35" y="179" width="175.18" height="10" as="geometry" />
        </mxCell>
        <mxCell id="hQpZcuahVdaNMsb9Cztg-20" value="Outsource KZ" style="text;html=1;align=center;verticalAlign=middle;whiteSpace=wrap;rounded=0;" vertex="1" parent="1">
          <mxGeometry x="266.25" y="862.5" width="95.5" height="30" as="geometry" />
        </mxCell>
      </root>
    </mxGraphModel>
  </diagram>
</mxfile>
